<?xml version="1.0" encoding="UTF-8"?>
<svg width="272px" height="88px" viewBox="0 0 272 88" version="1.1" xmlns="http://www.w3.org/2000/svg" xmlns:xlink="http://www.w3.org/1999/xlink">
    <!-- Generator: Sketch 61 (89581) - https://sketch.com -->
    <title>Artboard</title>
    <desc>Created with Sketch.</desc>
    <defs>
        <linearGradient x1="27.893167%" y1="78.3721466%" x2="80.6764817%" y2="-33.4793636%" id="linearGradient-1">
            <stop stop-color="#FAAC4B" offset="0%"></stop>
            <stop stop-color="#F9A549" offset="4%"></stop>
            <stop stop-color="#F79045" offset="9%"></stop>
            <stop stop-color="#F36F3E" offset="16%"></stop>
            <stop stop-color="#EE4034" offset="23%"></stop>
            <stop stop-color="#ED3431" offset="25%"></stop>
            <stop stop-color="#A41034" offset="52%"></stop>
        </linearGradient>
    </defs>
    <g id="Artboard" stroke="none" stroke-width="1" fill="none" fill-rule="evenodd">
        <g id="labxchange-logo-full" transform="translate(12.000000, 0.000000)" fill-rule="nonzero">
            <polygon id="Path" fill="#0063C3" points="108.1 13.21 89.07 44.48 108.1 74.79 123.8 74.79 104.77 44.48 123.8 13.21"></polygon>
            <path d="M251.07,31.2999992 C251.222666,31.2996365 251.349472,31.4176966 251.36,31.57 C251.345627,31.7110009 251.231443,31.8209561 251.09,31.83 L249.92,31.83 L249.92,35.67 C249.940874,35.776951 249.895411,35.885966 249.804734,35.9463971 C249.714057,36.0068282 249.595943,36.0068282 249.505266,35.9463971 C249.414589,35.885966 249.369126,35.776951 249.39,35.67 L249.39,31.83 L248.21,31.83 C248.070326,31.824624 247.959897,31.7097777 247.96,31.57 C247.968254,31.4318855 248.072927,31.3188379 248.21,31.2999992 L251.07,31.2999992 Z M254.87,31.68 C254.955631,31.4550381 255.169337,31.3046526 255.41,31.3 C255.709372,31.3103323 255.949668,31.5506276 255.96,31.85 L255.96,35.67 C255.950307,35.8149124 255.834912,35.9303075 255.69,35.94 C255.546948,35.9262852 255.433715,35.8130518 255.42,35.67 L255.42,32.29 C255.42,32.22 255.42,32.19 255.36,32.19 C255.3,32.19 255.3,32.19 255.28,32.26 L254.17,35.7 C254.133505,35.8413441 254.00598,35.9400736 253.86,35.94 C253.693238,35.9283357 253.552457,35.8116882 253.51,35.65 L252.51,32.29 C252.51,32.24 252.46,32.22 252.43,32.22 C252.4,32.22 252.37,32.22 252.37,32.31 L252.37,35.67 C252.351766,35.8146431 252.23521,35.9270362 252.09,35.94 C251.948999,35.925627 251.839044,35.8114427 251.83,35.67 L251.83,31.85 C251.83,31.5462434 252.076243,31.3 252.38,31.3 C252.629411,31.2865151 252.854386,31.448997 252.92,31.69 L253.87,34.94 L254.87,31.68 Z" id="Shape" fill="#003E6B"></path>
            <path d="M132.69,33.53 C133.380356,33.53 133.94,34.0896441 133.94,34.78 C133.94,35.4703559 133.380356,36.03 132.69,36.03 L127.54,36.03 C123.11,36.03 121.22,38.36 121.22,42.9 L121.22,47.23 C121.22,52.14 123.34,54.4 127.54,54.4 L132.69,54.4 C133.374833,54.4 133.93,54.9551669 133.93,55.64 C133.93,56.3248331 133.374833,56.88 132.69,56.88 L127.54,56.88 C121.54,56.88 118.54,53.73 118.54,47.2 L118.54,42.9 C118.54,36.82 121.54,33.53 127.54,33.53 L132.69,33.53 Z" id="Path" fill="#003E6B"></path>
            <path d="M139.23,26.09 C139.221094,25.7302111 139.362895,25.3830596 139.621152,25.1323988 C139.879408,24.8817379 140.230637,24.7503604 140.59,24.77 C140.954651,24.7480203 141.31229,24.8769982 141.578976,25.126662 C141.845662,25.3763258 141.997915,25.7246929 142,26.09 L142,33.53 L149.47,33.53 C153.37,33.53 156.79,36.41 156.79,41.21 L156.79,55.61 C156.78047,55.9722628 156.621301,56.3143936 156.350344,56.5550335 C156.079388,56.7956735 155.720853,56.9133212 155.36,56.88 C155.011419,56.9057929 154.668326,56.7820614 154.416444,56.53972 C154.164561,56.2973785 154.02768,55.959317 154.04,55.61 L154.04,41.29 C154.04,38.12 151.85,36.03 149.47,36.03 L142,36.03 L142,55.61 C141.995545,55.966695 141.843586,56.3056221 141.580233,56.5462392 C141.31688,56.7868563 140.965647,56.9076808 140.61,56.88 C140.2556,56.914609 139.903424,56.7951899 139.643169,56.5521576 C139.382914,56.3091252 139.239699,55.9659373 139.25,55.61 L139.23,26.09 Z" id="Path" fill="#003E6B"></path>
            <path d="M164,36 C163.641613,36.043362 163.281979,35.9296648 163.013649,35.6881679 C162.745319,35.446671 162.594498,35.100959 162.6,34.74 C162.599285,34.3967896 162.740851,34.0686331 162.991,33.8336449 C163.241149,33.5986566 163.577504,33.4778566 163.92,33.5 L172.16,33.5 C173.905627,33.5058711 175.572608,34.2267492 176.772479,35.4946439 C177.972349,36.7625386 178.600301,38.4667008 178.51,40.21 L178.51,54.91 C178.51888,55.4377372 178.308982,55.9456233 177.930123,56.3131165 C177.551264,56.6806097 177.037222,56.8749454 176.51,56.85 L168,56.85 C166.229255,56.871336 164.522709,56.1876275 163.256523,54.9495786 C161.990337,53.7115298 161.268456,52.0207773 161.25,50.25 C161.299288,46.5588973 164.308573,43.594194 168,43.6 L175.74,43.6 L175.74,40.4 C175.74,37.91 174.26,36.03 171.97,36.03 L164,36 Z M175.77,54.28 L175.77,46.16 L168,46.16 C165.780621,46.2453363 164.019716,48.0590686 164,50.28 C164.042561,52.4712676 165.808732,54.2374392 168,54.28 L175.77,54.28 Z" id="Shape" fill="#003E6B"></path>
            <path d="M194.41,33.53 C196.420897,33.5100064 198.350006,34.3249966 199.737468,35.7806946 C201.12493,37.2363926 201.846438,39.2023769 201.73,41.21 L201.73,55.56 C201.682056,56.3111505 201.05258,56.8922048 200.3,56.8801888 C199.570984,56.8801888 198.98,56.2890159 198.98,55.56 L198.98,41.21 C198.98,38.12 197.1,36.03 194.41,36.03 L186.93,36.03 L186.93,55.49 C186.889903,56.2075958 186.305748,56.774274 185.587265,56.7925626 C184.868783,56.8108513 184.256554,56.2746265 184.179998,55.56 L184.179998,35.56 C184.179314,35.0117775 184.403699,34.4873073 184.800688,34.1092225 C185.197677,33.7311377 185.732463,33.5325884 186.28,33.56 L194.41,33.53 Z" id="Path" fill="#003E6B"></path>
            <path d="M222.11,33.53 C222.647123,33.5071121 223.169238,33.7104662 223.549386,34.0906142 C223.929534,34.4707622 224.132888,34.992877 224.11,35.53 L224.11,56.7 C224.11,63.7 222.2,67.24 215.56,67.24 L208.56,67.24 C208.116991,67.2542907 207.700009,67.0311531 207.466128,66.654641 C207.232248,66.278129 207.217,65.8054437 207.426128,65.414641 C207.635257,65.0238383 208.036991,64.7742906 208.48,64.76 L215.48,64.76 C219.92,64.76 221.22,62.52 221.29,56.88 L214,56.88 C211.99175,56.9057882 210.063268,56.0950571 208.676686,54.642086 C207.290103,53.1891149 206.570385,51.2248509 206.69,49.22 L206.69,42.22 C206.69,38.84 208.59,33.51 214.09,33.51 L222.11,33.53 Z M221.37,36.16 L214.06,36.16 C211.48,36.16 209.41,38.67 209.41,42.35 L209.41,49.22 C209.319677,50.5025519 209.754244,51.7667733 210.614038,52.7227289 C211.473833,53.6786846 212.685082,54.2443514 213.97,54.29 L221.37,54.29 L221.37,36.16 Z" id="Shape" fill="#003E6B"></path>
            <path d="M229.45,42.44 C229.45,36.8 233.3,33.53 238.15,33.53 C243.83,33.53 247.08,36.69 247.08,42.44 L247.08,44.6 C247.075037,45.1199049 246.859434,45.6155694 246.482486,45.97367 C246.105539,46.3317705 245.599476,46.5216874 245.08,46.5 L232.23,46.5 C232.23,52.07 233.54,54.4 238.03,54.4 L245.03,54.4 C245.37922,54.3688727 245.725296,54.4870366 245.982555,54.7252401 C246.239815,54.9634437 246.384212,55.2994207 246.38,55.65 C246.386137,55.9868754 246.251534,56.3110539 246.00859,56.5445081 C245.765646,56.7779622 245.436364,56.8995478 245.1,56.88 L238,56.88 C231.24,56.88 229.45,53.28 229.45,46.01 L229.45,42.44 Z M244.31,42.23 C244.25,38.17 242.19,36.03 238.15,36.03 C234.5,36.03 232.27,38.48 232.2,42.22 L232.2,44.22 L244.31,44.22 L244.31,42.23 Z" id="Shape" fill="#003E6B"></path>
            <path d="M-4.85088992e-06,26.13 C-4.85088992e-06,25.33471 0.64470996,24.69 1.44,24.69 C2.23529004,24.69 2.88,25.33471 2.88,26.13 L2.88,54.13 L16.48,54.13 C16.8706049,54.093304 17.2585276,54.2233839 17.5480476,54.4881422 C17.8375675,54.7529006 18.0017199,55.1276789 18.0000134,55.52 C17.9976403,55.8922466 17.8439041,56.2475063 17.5741615,56.5040448 C17.3044188,56.7605833 16.9418966,56.8963106 16.57,56.88 L2.29,56.88 C1.6959403,56.9187666 1.11239853,56.7094818 0.678383705,56.3020006 C0.244368878,55.8945194 -0.00126355217,55.3253219 -4.85088992e-06,54.73 L-4.85088992e-06,26.13 Z" id="Path" fill="#003E6B"></path>
            <path d="M24.11,36 C23.7516128,36.043362 23.3919788,35.9296648 23.1236489,35.6881679 C22.855319,35.446671 22.7044983,35.100959 22.71,34.74 C22.717772,34.4075178 22.8587755,34.0920932 23.1013412,33.8645703 C23.3439069,33.6370475 23.6677012,33.516499 24,33.53 L32.23,33.53 C33.9773658,33.5331385 35.6469728,34.2528216 36.8490307,35.5210305 C38.0510886,36.7892394 38.680384,38.4949706 38.59,40.24 L38.59,54.94 C38.5959473,55.4668468 38.3851279,55.9729879 38.0069375,56.3398325 C37.6287472,56.7066772 37.1164214,56.9019869 36.59,56.88 L28.14,56.88 C26.3701911,56.9013312 24.6646824,56.2173081 23.4000828,54.9789761 C22.1354831,53.7406441 21.4158168,52.0498667 21.4,50.28 C21.4274946,46.5787619 24.438664,43.5943981 28.14,43.6 L35.88,43.6 L35.88,40.4 C35.88,37.91 34.4,36.03 32.12,36.03 L24.11,36 Z M35.88,54.28 L35.88,46.16 L28.14,46.16 C25.9206211,46.2453363 24.1597159,48.0590686 24.14,50.28 C24.1876633,52.4690923 25.9509077,54.2323367 28.14,54.28 L35.88,54.28 Z" id="Shape" fill="#003E6B"></path>
            <path d="M44.34,26.09 C44.4009506,25.3759394 44.9983428,24.8273669 45.715,24.8273669 C46.4316572,24.8273669 47.0290494,25.3759394 47.09,26.09 L47.09,33.53 L54.47,33.53 C58.37,33.53 61.79,36.41 61.79,41.21 L61.79,48.21 C61.79,51.58 59.87,56.87 54.38,56.87 L46.43,56.87 C45.3120267,56.8659442 44.3932298,55.9867128 44.34,54.87 L44.34,26.09 Z M47.09,54.27 L54.38,54.27 C56.97,54.27 59.04,51.76 59.04,48.08 L59.04,41.21 C59.04,38.12 56.87,36.03 54.47,36.03 L47.09,36.03 L47.09,54.27 Z" id="Shape" fill="#003E6B"></path>
            <g id="Group" opacity="0.45" style="mix-blend-mode: multiply;" transform="translate(88.000000, 31.000000)" fill="#000000">
                <polygon id="Path" opacity="0.55" points="8 0 0 13 8 26 16.12 13.67"></polygon>
            </g>
            <polygon id="Path" fill="url(#linearGradient-1)" points="72.6 0.63 99.41 44.67 72.6 87.37 50.49 87.37 77.29 44.67 50.49 0.63"></polygon>
        </g>
    </g>
</svg>